# xmcd CD database file
#
# Track frame offsets:
#	182
#	18322
#	34037
#	57370
#	67087
#	87270
#	109807
#	147937
#	166760
#	182637
#	191747
#	198975
#	204492
#
# Disc length: 2998 seconds
#
# Revision: 1
# Processed by: cddbd v1.5.1PL0 Copyright (c) Steve Scherf et al.
# Submitted via: Feurio! 1.68 - http://www.feurio.com
#
DISCID=b50bb40d
DTITLE=Chuck Berry - TV Special 1972
DYEAR=1972
DGENRE=blues
TTITLE0=Roll Over Beethoven
TTITLE1=Sweet Little Sixteen
TTITLE2=Memphis Tennessee
TTITLE3=South Of The Border
TTITLE4=Beer Drinking Woman
TTITLE5=Let It Rock
TTITLE6=Mean Old World
TTITLE7=Carol
TTITLE8=Liverpool Drive
TTITLE9=Nadine
TTITLE10=Bye, Bye, Johnny
TTITLE11=Bonsoir Cherie
TTITLE12=Johnny B. Goode
EXTD=
EXTT0=
EXTT1=
EXTT2=
EXTT3=
EXTT4=
EXTT5=
EXTT6=
EXTT7=
EXTT8=
EXTT9=
EXTT10=
EXTT11=
EXTT12=
PLAYORDER=
